<svg width="416" height="255" viewBox="0 0 416 255" fill="none" xmlns="http://www.w3.org/2000/svg">
<path d="M210.689 0.0107564C324.325 0.892489 416 57.591 416 127.405C416 197.769 322.875 254.81 208 254.81L205.311 254.799C91.6753 253.918 0 197.219 0 127.405C0 57.0412 93.1253 0 208 0L210.689 0.0107564ZM208 0.406786C150.625 0.406786 98.701 14.6523 61.1342 37.6629C23.5606 60.6776 0.406786 92.4181 0.406786 127.405C0.406786 162.392 23.5606 194.133 61.1342 217.147C98.701 240.158 150.625 254.403 208 254.403C265.375 254.403 317.299 240.158 354.866 217.147C392.439 194.133 415.593 162.392 415.593 127.405C415.593 92.4181 392.439 60.6776 354.866 37.6629C317.299 14.6524 265.375 0.406867 208 0.406786ZM210.117 27.1158C299.575 27.81 371.744 72.4461 371.744 127.406L371.732 128.702C370.598 183.497 297.727 227.703 208 227.703L205.883 227.695C117.13 227.007 45.3937 183.065 44.2692 128.702L44.2555 127.406C44.2555 72.0132 117.567 27.108 208 27.108L210.117 27.1158ZM208 27.5148C162.846 27.5148 121.985 38.7267 92.4274 56.8317C62.8627 74.9409 44.6623 99.9048 44.6623 127.406C44.6628 154.907 62.863 179.87 92.4274 197.979C121.985 216.084 162.847 227.296 208 227.296C253.154 227.296 294.015 216.084 323.573 197.979C353.137 179.87 371.337 154.907 371.338 127.406C371.338 99.9048 353.137 74.9409 323.573 56.8317C294.015 38.7267 253.154 27.5149 208 27.5148ZM209.544 54.2208C274.824 54.7272 327.489 87.299 327.489 127.405L327.479 128.351C326.653 168.337 273.476 200.595 208 200.595L206.455 200.589C141.175 200.083 88.5101 167.511 88.5101 127.405C88.5101 86.9833 142.007 54.215 208 54.215L209.544 54.2208ZM208 54.6217C175.066 54.6217 145.27 62.7991 123.721 75.9985C102.164 89.2023 88.9169 107.389 88.9169 127.405C88.9169 147.421 102.164 165.608 123.721 178.812C145.27 192.011 175.066 200.188 208 200.188C240.933 200.188 270.729 192.011 292.278 178.812C313.835 165.608 327.082 147.421 327.082 127.405C327.082 107.389 313.835 89.2023 292.278 75.9985C270.729 62.7991 240.933 54.6217 208 54.6217ZM209.145 73.195C257.5 73.5702 296.512 97.6969 296.512 127.405L296.505 128.106C295.892 157.725 256.502 181.62 208.001 181.62L206.857 181.615C158.882 181.243 120.105 157.492 119.497 128.106L119.49 127.405C119.49 97.463 159.118 73.1901 208.001 73.1901L209.145 73.195ZM208.001 73.5969C183.623 73.5969 161.571 79.651 145.627 89.4166C129.677 99.1865 119.897 112.629 119.897 127.405C119.897 142.181 129.677 155.624 145.627 165.394C161.571 175.159 183.623 181.213 208.001 181.213C232.38 181.213 254.431 175.159 270.375 165.394C286.325 155.624 296.105 142.181 296.105 127.405C296.105 112.629 286.325 99.1865 270.375 89.4166C254.431 79.651 232.38 73.5971 208.001 73.5969ZM207.558 97.0448C234.688 97.0448 256.681 110.516 256.681 127.134L256.677 127.523C256.337 143.962 234.475 157.224 207.558 157.224L206.29 157.214C179.957 156.805 158.773 143.703 158.438 127.523L158.434 127.134C158.434 110.516 180.427 97.0448 207.558 97.0448ZM207.558 97.4516C194.055 97.4516 181.85 100.805 173.035 106.205C164.212 111.609 158.841 119.02 158.841 127.134C158.841 135.248 164.212 142.659 173.035 148.063C181.85 153.463 194.055 156.816 207.558 156.816C221.06 156.816 233.265 153.463 242.081 148.063C250.903 142.659 256.274 135.248 256.274 127.134C256.274 119.02 250.903 111.609 242.081 106.205C233.265 100.805 221.06 97.4516 207.558 97.4516ZM208.686 111.145C223.034 111.368 234.553 118.563 234.553 127.405L234.544 127.825C234.181 136.613 222.436 143.669 208 143.67L207.315 143.664C193.194 143.445 181.813 136.474 181.456 127.825L181.447 127.405C181.447 118.422 193.336 111.141 208 111.141L208.686 111.145ZM208 111.547C200.731 111.547 194.168 113.354 189.437 116.252C184.699 119.154 181.854 123.109 181.854 127.405C181.854 131.701 184.699 135.656 189.437 138.558C194.168 141.456 200.731 143.263 208 143.263C215.27 143.263 221.832 141.456 226.563 138.558C231.301 135.656 234.146 131.701 234.146 127.405C234.146 123.109 231.301 119.154 226.563 116.252C221.832 113.354 215.27 111.547 208 111.547Z" fill="#343434"/>
</svg>
